<?xml version="1.0" standalone="no"?>
<!DOCTYPE svg PUBLIC "-//W3C//DTD SVG 20010904//EN"
 "http://www.w3.org/TR/2001/REC-SVG-20010904/DTD/svg10.dtd">
<svg version="1.0" xmlns="http://www.w3.org/2000/svg"
 width="700.000000pt" height="700.000000pt" viewBox="0 0 700.000000 700.000000"
 preserveAspectRatio="xMidYMid meet">
<metadata>
Created by potrace 1.11, written by Peter Selinger 2001-2013
</metadata>
<g transform="translate(0.000000,700.000000) scale(0.100000,-0.100000)"
fill="#000000" stroke="none">
<path d="M3920 6952 c-7 -3 -10 -341 -10 -994 l0 -990 -84 84 c-100 99 -213
183 -333 245 -88 46 -265 109 -332 119 -20 3 -43 7 -51 9 -63 17 -338 26 -420
14 -25 -4 -73 -9 -106 -13 -187 -19 -437 -116 -619 -240 -124 -84 -294 -256
-376 -381 -97 -146 -99 -151 -151 -263 -101 -217 -161 -429 -202 -712 -34
-235 -21 -612 29 -850 3 -14 7 -36 10 -50 20 -111 106 -346 175 -480 56 -110
61 -119 111 -195 160 -244 345 -412 574 -524 226 -111 429 -155 710 -155 94 0
216 8 260 18 217 47 362 109 520 221 50 36 132 106 184 157 l94 93 -6 -290
c-3 -159 -8 -299 -10 -310 -3 -11 -8 -54 -12 -95 -16 -164 -95 -356 -199 -482
-135 -163 -304 -254 -551 -297 -89 -16 -147 -19 -305 -16 -207 3 -221 4 -345
37 -98 26 -166 55 -250 109 -125 79 -197 187 -238 357 -18 78 -25 92 -42 93
-11 0 -29 2 -40 5 -11 2 -40 6 -65 10 -25 3 -52 8 -61 9 -9 2 -40 6 -70 10
-30 4 -56 8 -59 10 -3 2 -34 6 -70 10 -36 4 -67 8 -70 10 -3 2 -30 6 -60 9
-30 4 -67 9 -81 12 l-26 5 3 -89 c6 -241 68 -445 185 -612 36 -50 137 -155
199 -205 30 -24 177 -114 235 -143 175 -88 436 -152 685 -169 161 -10 484 -3
509 11 3 2 30 7 60 10 358 43 712 217 943 465 183 196 287 427 338 751 17 110
18 119 25 185 13 139 17 165 24 165 5 0 8 929 8 2065 0 1136 3 2068 6 2071 8
9 114 -26 167 -54 225 -119 440 -349 568 -607 115 -231 187 -476 219 -745 10
-84 10 -355 0 -445 -44 -398 -219 -765 -515 -1083 -27 -29 -30 -37 -20 -51 33
-42 39 -40 92 17 259 280 459 638 581 1038 20 65 38 126 40 135 2 9 13 61 25
115 89 410 82 850 -16 1112 -47 123 -236 475 -343 637 -99 150 -170 235 -335
403 -253 256 -261 267 -320 387 -30 61 -72 160 -92 220 l-37 110 -324 0 c-177
0 -327 -1 -333 -3z m-870 -2048 c25 -4 50 -8 55 -10 6 -1 21 -4 35 -7 99 -21
238 -91 340 -170 174 -136 285 -289 363 -498 67 -179 67 -178 67 -722 0 -310
-4 -509 -11 -537 -6 -25 -12 -52 -14 -61 -10 -50 -64 -186 -103 -263 -139
-271 -382 -453 -687 -516 -77 -16 -282 -17 -360 -1 -294 59 -536 236 -675 493
-70 130 -136 342 -156 498 -4 30 -8 66 -10 80 -22 154 -21 542 0 670 3 14 7
41 10 60 31 207 108 415 207 561 92 136 266 286 409 353 153 70 358 97 530 70z"/>
</g>
</svg>
